# Blender v2.83.19 OBJ File: ''
# www.blender.org
mtllib _ring_48.mtl
o Torus.002
v -1.207407 0.323524 0.000000
v -1.175055 0.314855 0.125000
v -1.086667 0.291171 0.216506
v -0.965926 0.258819 0.250000
v -0.845185 0.226467 0.216506
v -0.756797 0.202783 0.125000
v -0.724444 0.194114 0.000000
v -0.756797 0.202783 -0.125000
v -0.845185 0.226467 -0.216506
v -0.965926 0.258819 -0.250000
v -1.086667 0.291171 -0.216506
v -1.175055 0.314855 -0.125000
v -1.239306 0.163158 0.000000
v -1.206099 0.158786 0.125000
v -1.115375 0.146842 0.216506
v -0.991445 0.130526 0.250000
v -0.867514 0.114210 0.216506
v -0.776791 0.102267 0.125000
v -0.743584 0.097895 0.000000
v -0.776791 0.102267 -0.125000
v -0.867514 0.114211 -0.216506
v -0.991445 0.130526 -0.250000
v -1.115375 0.146842 -0.216506
v -1.206099 0.158786 -0.125000
vt 0.958333 0.500000
vt 0.979167 0.500000
vt 0.979167 0.583333
vt 0.958333 0.583333
vt 0.979167 0.666667
vt 0.958333 0.666667
vt 0.979167 0.750000
vt 0.958333 0.750000
vt 0.979167 0.833333
vt 0.958333 0.833333
vt 0.979167 0.916667
vt 0.958333 0.916667
vt 0.979167 1.000000
vt 0.958333 1.000000
vt 0.958333 0.000000
vt 0.979167 0.000000
vt 0.979167 0.083333
vt 0.958333 0.083333
vt 0.979167 0.166667
vt 0.958333 0.166667
vt 0.979167 0.250000
vt 0.958333 0.250000
vt 0.979167 0.333333
vt 0.958333 0.333333
vt 0.979167 0.416667
vt 0.958333 0.416667
vn -0.9475 0.1885 0.2583
vn -0.6943 0.1381 0.7063
vn -0.2544 0.0506 0.9658
vn 0.2544 -0.0506 0.9658
vn 0.6943 -0.1381 0.7063
vn 0.9475 -0.1885 0.2583
vn 0.9475 -0.1885 -0.2583
vn 0.6943 -0.1381 -0.7063
vn 0.2544 -0.0506 -0.9658
vn -0.2544 0.0506 -0.9658
vn -0.6943 0.1381 -0.7063
vn -0.9475 0.1885 -0.2583
usemtl None
s off
f 1/1/1 13/2/1 14/3/1 2/4/1
f 2/4/2 14/3/2 15/5/2 3/6/2
f 3/6/3 15/5/3 16/7/3 4/8/3
f 4/8/4 16/7/4 17/9/4 5/10/4
f 5/10/5 17/9/5 18/11/5 6/12/5
f 6/12/6 18/11/6 19/13/6 7/14/6
f 7/15/7 19/16/7 20/17/7 8/18/7
f 8/18/8 20/17/8 21/19/8 9/20/8
f 9/20/9 21/19/9 22/21/9 10/22/9
f 10/22/10 22/21/10 23/23/10 11/24/10
f 11/24/11 23/23/11 24/25/11 12/26/11
f 12/26/12 24/25/12 13/2/12 1/1/12
